<svg xmlns="http://www.w3.org/2000/svg" width="31" height="48" viewBox="0 0 31 48" fill="none"><path d="M0.459759 25.1813C-0.842314 28.4062 0.71574 32.0766 3.94069 33.3807L21.4602 40.4595C24.6852 41.7636 28.3556 40.2035 29.6597 36.9785C30.9638 33.7536 29.4057 30.0832 26.1787 28.7791L8.65919 21.7003C5.43424 20.3963 1.76385 21.9563 0.459759 25.1813Z" fill="url(#paint0_linear_717_24592)"></path><path d="M0.459759 11.026C-0.842314 14.2509 0.71574 17.9213 3.94069 19.2254L21.4602 26.3042C24.6852 27.6063 28.3556 26.0482 29.6597 22.8233C30.9617 19.5983 29.4037 15.9279 26.1787 14.6238L8.65919 7.54507C5.43424 6.24098 1.76385 7.80105 0.459759 11.026Z" fill="url(#paint1_linear_717_24592)"></path><path d="M0.459759 29.8996C1.76183 33.1245 5.43424 34.6826 8.65919 33.3805L26.1787 26.3017C29.4037 24.9997 30.9617 21.3273 29.6597 18.1023C28.3556 14.8774 24.6852 13.3193 21.4602 14.6214L3.94069 21.7001C0.71574 23.0042 -0.842314 26.6746 0.459759 29.8996Z" fill="url(#paint2_linear_717_24592)"></path><path d="M0.459759 44.0593C1.76183 47.2842 5.43424 48.8423 8.65919 47.5402L26.1787 40.4614C29.4037 39.1593 30.9617 35.4869 29.6597 32.262C28.3556 29.037 24.6852 27.479 21.4602 28.781L3.94069 35.8598C0.71574 37.1619 -0.842314 40.8323 0.459759 44.0593Z" fill="url(#paint3_linear_717_24592)"></path><path d="M0.459759 15.738C1.76183 18.9629 5.43424 20.521 8.65919 19.2189L26.1787 12.1401C29.4037 10.8381 30.9617 7.16564 29.6597 3.94069C28.3576 0.71574 24.6852 -0.842314 21.4602 0.459759L3.94069 7.53852C0.71574 8.84261 -0.842314 12.513 0.459759 15.738Z" fill="url(#paint4_linear_717_24592)"></path><defs><linearGradient id="paint0_linear_717_24592" x1="1.14392" y1="40.3542" x2="28.1167" y2="40.3599" gradientUnits="userSpaceOnUse"><stop stop-color="#88F31D"></stop><stop offset="1" stop-color="#88F31D" stop-opacity="0.15"></stop></linearGradient><linearGradient id="paint1_linear_717_24592" x1="1.14388" y1="26.1981" x2="28.1156" y2="26.2038" gradientUnits="userSpaceOnUse"><stop stop-color="#88F31D"></stop><stop offset="1" stop-color="#88F31D" stop-opacity="0.15"></stop></linearGradient><linearGradient id="paint2_linear_717_24592" x1="1.14388" y1="33.2744" x2="28.1156" y2="33.2801" gradientUnits="userSpaceOnUse"><stop stop-color="#88F31D"></stop><stop offset="1" stop-color="#88F31D" stop-opacity="0.15"></stop></linearGradient><linearGradient id="paint3_linear_717_24592" x1="1.14388" y1="47.4341" x2="28.1156" y2="47.4398" gradientUnits="userSpaceOnUse"><stop stop-color="#88F31D"></stop><stop offset="1" stop-color="#88F31D" stop-opacity="0.15"></stop></linearGradient><linearGradient id="paint4_linear_717_24592" x1="1.14388" y1="19.1128" x2="28.1156" y2="19.1185" gradientUnits="userSpaceOnUse"><stop stop-color="#88F31D"></stop><stop offset="1" stop-color="#88F31D" stop-opacity="0.15"></stop></linearGradient></defs></svg>